<svg xmlns="http://www.w3.org/2000/svg" width="758" height="352" fill="none"><path fill="#FCC908" d="M212.137 126.048c1.816 6.167 4.17 11.988 4.838 17.996.773 6.962-3.267 12.038-9.903 14.502-19.908 7.39-39.839 14.717-59.76 22.072-1.242.459-2.47.956-3.976 1.541.546.98.819 1.881 1.407 2.46 9.426 9.281 12.55 20.963 13.163 33.704.074 1.531 1.406 3.001 2.155 4.499 1.004-1.406 2.412-2.675 2.949-4.241 3.952-11.531 7.736-23.119 11.56-34.693 1.487-4.499 4.492-7.267 9.051-8.658 3.881-1.183 7.663-2.715 11.434-4.226 3.746-1.501 6.078-.273 7.392 3.402 2.974 8.323 2.388 16.3-2.352 23.841-4.614 7.341-8.06 15.116-9.308 23.743l1.165-.224c.708 1.707 2.006 3.407 2.029 5.124.173 12.833.172 25.671.001 38.505-.022 1.714-.807 4.114-2.075 5.003-7.859 5.513-15.955 10.688-23.981 15.963-.724.476-1.618.743-2.237 1.318-1.247 1.16-2.358 2.466-4.446 4.695-.882 12.87 13.487 29.011 29.034 30.667 2.692.286 5.417.376 8.127.379 24.011.028 48.022.003 72.032.043 1.838.003 4.662-.829 3.691 2.99-28.442 0-56.826.76-85.142-.309-14.906-.564-27.433-14.149-30.681-29.315-.437-2.043-.77-4.108-1.942-5.503-1.176-1.126-2.316-2.292-3.541-3.362-.636-.556-1.418-.945-2.139-1.402-7.737-4.906-15.576-9.665-23.129-14.839-1.499-1.027-2.661-3.635-2.695-5.537-.231-13.134-.183-26.274-.029-39.41.016-1.372 1.336-2.716 1.998-4.099.294-.614.758-1.359.632-1.932-1.747-7.966-3.259-16.185-9.822-21.827-2.64-2.27-6.245-3.428-9.433-5.046-1.994-1.012-4.288-1.611-6.001-2.961-6.52-5.136-9.766-21.476-5.337-28.4 1.666-2.604 4.503-5.119 7.363-6.196 31.15-11.729 62.406-23.173 93.642-34.669 5.671-2.087 10.332-.498 14.266 4.402Z"/><path fill="#FAC708" d="M289.721 9.544c3.395 7.352 5.162 14.658-.324 21.145-2.56 3.027-6.542 5.355-10.338 6.762-81.038 30.026-162.142 59.875-243.233 89.758-3.39 1.25-6.777 2.508-10.176 3.731-11.39 4.098-19.82.117-23.988-11.31-4.192-11.493-.408-20.021 10.841-24.172C73.806 72.837 135.12 50.242 196.428 27.635c23.581-8.696 47.155-17.411 70.74-26.097 9.648-3.553 17.112-.976 22.554 8.006ZM58.316 105.696c44.075-16.233 88.149-32.465 132.223-48.699 24.146-8.894 48.32-17.715 72.391-26.81 2.364-.894 4.756-3.151 5.866-5.401.705-1.43-.425-4.411-1.644-5.997-1.962-2.553-4.863-2.296-7.836-1.189-21.299 7.927-42.632 15.76-63.956 23.615-55.092 20.294-110.186 40.582-165.277 60.878-5.531 2.038-7.687 5.219-6.272 9.167 1.525 4.252 5.182 5.316 10.985 3.171a9026.869 9026.869 0 0 0 23.52-8.735Z"/><path fill="#FDC908" d="M111.631 106.077c28.135-10.402 55.955-20.643 83.77-30.896 10.242-3.775 16.462-.633 19.487 9.904.664 2.314 1.317 4.635 1.859 6.98 2.063 8.926-1.809 16.298-10.332 19.446a53349.394 53349.394 0 0 1-91.085 33.546c-8.612 3.163-15.141-.106-17.895-8.898-.855-2.73-1.653-5.486-2.299-8.272-2.124-9.166 1.817-16.38 10.658-19.659 1.834-.681 3.68-1.331 5.837-2.151Z"/><path fill="#FCC908" d="M293.342 202.803c2.802.706 2.814-.796 2.807-2.43-.026-5.584.102-11.171-.049-16.751-.088-3.272 1.106-4.69 4.475-4.59 5.277.156 10.565.119 15.845.013 3.053-.062 4.258 1.096 4.249 4.265-.083 29.128-.002 58.257-.175 87.385-.01 1.607-1.585 4.331-2.874 4.632-13.11 3.056-26.397 5.231-39.846 2.687-12.975-2.454-21.184-10.525-22.856-23.542-1.159-9.026-1.308-18.461-.051-27.454 2.061-14.756 12.699-23.516 27.632-24.474 3.445-.221 6.924.101 10.843.259Zm-13.654 50.483c3.226 5.738 8.696 7.129 16.278 4.094v-34.103c-2.654-.136-5.159-.391-7.661-.367-5.579.054-8.777 2.022-9.126 7.251-.496 7.427.153 14.931.509 23.125Z"/><path fill="#FCC808" d="M590.671 266.566c-3.979-6.339-5.568-13.014-5.457-20.094.097-6.175-.129-12.418.704-18.505 2.069-15.108 12.47-24.451 27.788-25.428 4.339-.277 8.711-.042 13.768-.042 0-5.841.232-11.963-.08-18.057-.214-4.187 1.162-5.711 5.394-5.441 4.963.315 9.963.141 14.945.051 3.091-.056 4.264 1.278 4.257 4.367-.062 29.146.012 58.291-.174 87.436-.01 1.569-1.75 4.22-3.096 4.519-13.43 2.988-26.974 5.242-40.762 2.441-7.092-1.441-12.827-5.094-17.287-11.247Zm19.162-18.025c1.708 9.759 7.724 12.812 17.652 8.756 0-10.446.005-20.984-.01-31.521-.001-.733-.154-1.465-.27-2.494-2.177-.143-4.257-.377-6.339-.399-7.522-.083-10.111 1.957-10.875 9.519-.512 5.071-.21 10.224-.158 16.139ZM756.609 133.047c-2.053 19.75-15.121 30.419-35.207 29.098-20.135-1.325-30.012-10.858-31.379-31.208-.481-7.151-.292-14.541.969-21.575 2.525-14.08 12.113-22.343 26.444-23.62 4.616-.411 9.416-.45 13.96.336 16.765 2.902 24.903 13.528 25.617 33.018.165 4.506-.214 9.033-.404 13.951Zm-42.138-5.425c.05 1.504.003 3.019.168 4.511.676 6.088 3.997 9.581 8.912 9.468 4.829-.111 7.919-3.239 8.33-9.417.378-5.683.403-11.436-.023-17.112-.466-6.198-3.481-8.882-8.695-8.779-4.977.098-7.993 3.173-8.499 9.169-.316 3.741-.145 7.523-.193 12.16Z"/><path fill="#FBC808" d="M399.363 251.475c-2.855 19.038-15.453 28.776-35.216 27.577-19.557-1.187-29.75-10.904-31.239-30.457-.501-6.576-.308-13.29.386-19.854 1.457-13.762 10.002-23.288 23.674-25.319 6.982-1.038 14.546-.937 21.412.599 13.299 2.974 20.473 13.526 21.297 29.434.304 5.855-.152 11.749-.314 18.02Zm-35.868 6.479c6.649 1.265 10.658-1.336 11.229-8.143.502-5.982.426-12.059.033-18.057-.377-5.775-3.559-8.605-8.505-8.572-5 .033-8.151 2.808-8.54 8.573-.405 5.995-.616 12.109.161 18.03.371 2.827 3.223 5.329 5.622 8.169Z"/><path fill="#FCC908" d="M519.903 135.057c.162-8.679-.546-17.092.765-25.177 2.245-13.85 10.379-21.694 24.214-23.672 6.423-.918 13.347-.693 19.687.67 12.365 2.661 19.427 11.344 21.141 23.612 1.053 7.539 1.29 15.396.464 22.954-2.165 19.831-15.102 30.084-35.03 28.688-18.641-1.306-26.973-8.425-31.241-27.075Zm25.902-24.576c-.35 7.892-1.247 15.812-.851 23.666.251 4.997 3.961 7.488 8.176 7.461 4.45-.029 7.864-2.773 8.26-7.968.502-6.573.342-13.225.017-19.82-.171-3.46-1.983-6.509-5.743-7.29-3.695-.768-7.289-.473-9.859 3.951Z"/><path fill="#FCC808" d="M565.91 257.815c6.298-.15 6.298-.15 6.306 5.899.015 11.233.091 11.735-11.072 13.416-8.421 1.267-17.118 1.842-25.601 1.301-14.679-.936-25.257-11.62-26.492-26.196-.634-7.471-.644-15.095.051-22.557 1.347-14.475 10.881-24.018 25.775-26.815 19.213-3.609 34.804 5.015 38.928 21.965 1.159 4.764 1.245 9.845 1.376 14.793.213 8.023.057 8.027-8.044 8.027h-33.828c.067 7.637 3.087 10.896 10.491 10.935 7.227.037 14.457-.464 22.11-.768Zm-20.388-23.75h5.729c.522-8.17-2.998-12.759-9.231-12.557-5.957.194-9.257 4.879-8.515 12.557h12.017ZM304.912 153.973c-.839 1.658-1.434 3.719-2.551 4.057-13.282 4.023-26.792 6.077-40.449 2.156-11.638-3.342-18.437-11.675-19.752-23.37-.983-8.738-.953-17.854.385-26.53 2.21-14.334 12.356-23.066 26.783-24.528 4.314-.437 8.793-.46 13.071.175 14.286 2.118 23.385 11.824 25.215 26.691.55 4.471.43 9.024.624 13.539.148 3.452-1.404 4.718-4.922 4.661-10.856-.178-21.718-.065-32.577-.065h-4.406c-.534 6.987 2.607 10.648 9.722 10.899 5.86.207 11.756-.082 17.615-.461 11.249-.727 11.243-.818 11.243 10.568l-.001 2.208Zm-38.975-38.843c.433.665.852 1.896 1.3 1.907 5.638.131 11.28.086 16.881.086.227-8.133-2.761-12.277-8.54-12.503-5.398-.212-8.428 2.845-9.641 10.51Z"/><path fill="#F8C608" d="M471.358 226.952c.003 8.003-.092 15.554.042 23.101.096 5.382 1.406 6.561 6.866 6.618 6.039.062 12.083.142 18.118-.035 3.393-.099 4.588 1.266 4.447 4.551-.175 4.069-.136 8.155-.009 12.228.08 2.584-.923 4.222-3.509 4.248-10.954.109-22.023 1.075-32.832-.168-11.358-1.305-18.538-9.65-18.848-21.032-.631-23.231-.441-46.484-.608-69.728-.019-2.658 1.205-3.805 3.868-3.774 6.039.069 12.082.144 18.117-.032 3.445-.101 4.42 1.394 4.393 4.615-.11 12.984-.045 25.97-.045 39.408Z"/><path fill="#FCC908" d="M500.037 86.493c11.42.142 10.212-1.537 10.264 9.92.044 9.62.459 8.298-8.146 8.37-1.179.01-2.357.002-3.99.002 0 12.179-.089 24.041.157 35.895.022 1.039 2.105 2.453 3.493 2.933 1.484.513 3.482-.345 4.884.259 1.433.617 3.227 2.156 3.436 3.511.5 3.242.457 6.654.019 9.914-.179 1.332-1.877 3.426-3.001 3.505-6.564.462-13.275 1.245-19.723.362-8.626-1.181-13.404-7.694-13.744-17.604-.383-11.152-.192-22.324-.248-33.487-.009-1.639-.002-3.278-.002-4.966-.864-.267-1.414-.449-1.97-.607-9.453-2.677-11.008-5.059-9.012-14.849.252-1.234 2.141-2.709 3.507-3.011 2.258-.5 4.708-.136 7.476-.136 0-2.986.169-5.53-.043-8.04-.267-3.16 1.015-4.763 4.11-5.26 5.505-.883 10.991-1.884 16.48-2.863 2.901-.518 4.249.515 4.113 3.595-.147 3.313-.139 6.643.039 9.953.048.89.958 1.734 1.901 2.605Z"/><path fill="#F9C708" d="M344.788 150.772c.012 11.394.815 10.157-9.65 10.196-3.77.014-7.541-.048-11.31.014-2.681.044-3.845-1.245-3.844-3.845.01-22.319.01-44.638-.001-66.957-.001-2.65 1.216-3.775 3.9-3.715 4.824.11 9.651.018 14.477.033 4.464.014 4.464.027 6.085 4.452 4.42-3.853 9.434-5.785 15.342-5.422 2.528.155 3.498 1.08 3.447 3.553-.088 4.371-.152 8.75.024 13.117.117 2.903-1.206 3.467-3.799 3.552-14.673.479-14.671.536-14.671 14.722v30.3Z"/><path fill="#FAC708" d="M395.594 160.887c-6.113.067-11.854-.045-17.586.126-3.448.103-4.908-1.135-4.894-4.706.086-21.739.101-43.479-.014-65.217-.019-3.647 1.426-4.789 4.862-4.64 4.37.19 8.754.076 13.132.035 3.113-.029 6.512-.584 5.637 5.341 5.207-4.706 10.203-6.655 16.111-6.3 2.73.163 3.769 1.185 3.703 3.852-.105 4.225-.125 8.457.007 12.68.086 2.755-1.048 3.592-3.742 3.72-3.736.177-7.444.927-11.164 1.432-2.982.405-3.77 2.16-3.745 5.051.125 14.341.128 28.685-.032 43.025-.02 1.854-1.236 3.694-2.275 5.601Z"/><path fill="#FECA08" d="M598.636 118.218c0-9.199.187-17.951-.082-26.689-.126-4.09 1.388-5.31 5.259-5.087 4.508.26 9.047.167 13.567.025 3.23-.1 5.49.55 4.605 5.504 4.953-4.63 9.946-6.756 15.94-6.45 2.895.149 4.127 1.164 4.073 4.03-.076 4.07-.091 8.143.006 12.213.067 2.841-1.003 3.97-3.987 4.009-3.434.045-6.871.68-10.286 1.191-3.257.487-4.635 2.136-4.573 5.781.241 14.171-.023 28.35.173 42.522.058 4.192-1.017 6.106-5.57 5.771-4.799-.353-9.65-.206-14.469-.037-3.513.123-4.764-1.228-4.718-4.782.16-12.514.062-25.032.062-38.001Z"/><path fill="#FAC708" d="M449.516 86.63c1.049 1.631 2.247 3.176 2.256 4.727.123 21.587.036 43.175.132 64.763.015 3.432-1.063 5.011-4.676 4.892-5.278-.174-10.568-.144-15.848-.007-3.097.081-4.467-1.255-4.466-4.26.006-22.04.011-44.081-.003-66.122-.002-3.097 1.529-4.23 4.54-4.16 5.884.134 11.773.066 18.065.166ZM677.328 147.201c0 3.165-.115 5.887.028 8.595.188 3.571-1.11 5.345-4.937 5.214-5.124-.175-10.26-.126-15.387-.013-3.158.07-4.812-1.08-4.807-4.424.033-21.876.036-43.752-.004-65.628-.006-3.299 1.489-4.568 4.72-4.483 4.975.132 9.966.226 14.932-.024 4.173-.21 5.551 1.446 5.518 5.547-.146 18.254-.063 36.51-.063 55.216Z"/><path fill="#E7B807" d="M653.005 323.361c9.66 0 18.868.077 28.074-.017 17.106-.176 31.239-11.175 33.948-28.021 1.437-8.935 1.404-18.465.023-27.417-2.618-16.981-16.943-28.129-34.174-28.226-1.194-.006-2.387-.001-3.473-.001-1.554-2.931-.28-3.467 2.243-3.607 19.63-1.086 37.392 13.765 39.445 33.527 1.074 10.343 1.646 20.8-1.681 30.936-5.361 16.333-18.95 26.23-36.09 26.283-19.923.062-39.847.015-59.771.015h-3.46c-1.29-3.294.484-3.499 2.766-3.49 10.565.043 21.131.019 32.15.018Z"/><path fill="#F3C208" d="M657.04 79.756c-4.091.36-5.695-1.26-5.476-4.994.176-3.01.039-6.037.05-9.056.01-2.609 1.326-3.851 3.937-3.84 6.19.024 12.38.025 18.57.002 2.669-.01 3.841 1.364 3.838 3.926 0 .15.007.302.005.453-.181 15.955 2.034 13.26-12.819 13.503-2.565.042-5.133.006-8.105.006Z"/><path fill="#F8C608" d="M444.426 79.738c-4.954-.003-9.478-.024-14.001-.003-2.759.012-4.169-1.065-4.001-4.072.183-3.307.133-6.635.014-9.948-.099-2.725 1.147-3.849 3.759-3.839 6.182.025 12.364.01 18.546.009 2.575-.001 3.923 1.2 3.879 3.855-.035 2.11-.004 4.222-.005 6.333 0 7.657 0 7.657-8.191 7.665ZM566 61.27h11.997c-1.703 2.083-2.412 3.116-3.285 3.986-1.923 1.915-4.33 3.472-5.833 5.66-7.354 10.707-18.028 10.098-29.532 8.841.597-1.17.976-2.238 1.62-3.11 1.433-1.94 3.303-3.613 4.455-5.693 4.462-8.05 11.028-11.434 20.578-9.684Z"/><path fill="#EABA07" d="M399.277 326.787c-.066 2.98.015 5.569-.368 8.088-.168 1.103-1.283 2.062-1.968 3.086l-1.424-.698c.1-2.219.209-4.437.299-6.656.08-1.957.632-4.068.084-5.835-.726-2.342-2.318-4.415-3.538-6.604-1.962 1.601-4.534 2.843-5.741 4.89-1.723 2.92-2.343 6.471-3.649 9.665-.501 1.224-1.595 2.205-2.419 3.297-.63-1.194-1.604-2.328-1.825-3.594-.677-3.88.252-8.244-4.762-11.96-1.269 2.893-2.688 5.338-3.4 7.974-.698 2.588-.591 5.385-1.033 8.058-.113.688-.959 1.256-1.469 1.879-.608-.518-1.752-1.044-1.745-1.555.086-6.809.334-13.615.542-20.422l1.471-.344c.773 1.237 1.547 2.475 2.321 3.719 5.507-4.682 6.048-4.523 10.73 3.13 2.108-2.284 4.028-4.804 6.38-6.821 4.835-4.147 8.537-2.986 10.333 3.165.667 2.289.776 4.741 1.181 7.538ZM513.613 313.918c2.597.654 4.825 1.321 7.053 1.988l-.361 1.814c-1.057 0-2.191.253-3.157-.043-4.306-1.322-7.056.605-8.816 4.237-1.667 3.439-2.142 7.039.823 10.088 2.971 3.054 6.549 2.555 10.032 1.033 2.427-1.061 4.725-2.416 7.215-3.709.938 4.747-.747 6.106-10.323 8.785 2.366 1.594 4.745 2.856 6.707 4.589 4.03 3.562 3.22 7.198-1.935 8.492-2.584.649-5.361.686-8.049.677-1.036-.004-2.069-.905-3.103-1.397l.268-1.239 11.536-1.263 1.482-2.383c-1.378-.598-2.885-1.005-4.11-1.831-3.818-2.575-7.601-5.214-11.265-8.003-4.652-3.541-3.68-8.674-3.079-13.37.619-4.831 3.787-7.716 9.082-8.465Z"/><path fill="#ECBC07" d="M546.267 314.757c5.267-1.394 7.972-.024 9.498 4.982.961 3.153 1.381 6.468 2.084 9.702 1.142 5.251 2.085 5.669 6.494 3.07.558-.328 1.323-.305 1.992-.445l.904 1.138c-1.666 1.55-3.097 3.946-5.044 4.487-5.127 1.425-5.236-4.273-8.132-6.833-.964 1.26-1.601 2.778-2.736 3.424-1.931 1.1-4.335 2.524-6.238 2.172-1.691-.312-3.848-2.642-4.275-4.442-1.546-6.521-.35-12.546 5.453-17.255Zm.346 3.644c-3.442 3.35-4.178 7.528-3.263 11.977.717 3.486 3.497 4.168 5.854 1.487 2.805-3.191 4.058-6.921 2.913-11.213-.706-2.645-2.151-3.879-5.504-2.251Z"/><path fill="#E7B807" d="M351.548 332.714a325.926 325.926 0 0 0 6.462 3.356l-.671 1.341c-5.047 1.168-8.624-1.523-11.87-5.122-.861.787-1.518 1.728-2.418 2.144-2.345 1.084-5.103 3.073-7.11 2.531-1.661-.449-3.121-3.875-3.554-6.191-1.028-5.504-1.261-11.121.439-16.523l1.568-.082 1.316 19.925c9.875-4.463 7.699-13.789 10.681-20.395l1.799.273c0 2.541-.111 5.088.025 7.622.207 3.846-.428 7.968 3.333 11.121Z"/><path fill="#F3C208" d="M446.79 319.032c-2.453-3.27-4.365-1.522-5.427.525-2.41 4.647-4.324 9.548-6.592 14.273-.539 1.123-1.676 1.959-2.538 2.927-.345-1.317-1.026-2.647-.979-3.95.204-5.633.621-11.257 1.046-18.29l3.828 5.803c.803-1.183 1.529-2.313 2.315-3.4 3.586-4.964 9.026-4.769 11.841.67 3.164 6.115 2.96 12.786 2.34 19.428-.025.262-.691.464-1.449.939-1.426-6.348-2.803-12.483-4.385-18.925Z"/><path fill="#ECBC07" d="M485.831 337.065c-1.54-2.166-2.825-4.123-4.345-6.438-1.052 1.424-1.618 2.84-2.658 3.456-1.919 1.137-4.328 2.784-6.139 2.393-1.812-.391-3.877-2.761-4.545-4.706-1.832-5.336-.39-10.472 2.963-14.844 3.587-4.675 9.137-3.96 11.426 1.456 1.092 2.584 1.523 5.479 2.026 8.275 1.464 8.146 1.867 8.438 8.672 5.465.487 4.639-2.006 6.437-7.4 4.943Zm-14.204-4.703c1.542-.051 3.704.53 4.517-.266 3.009-2.948 4.717-6.688 3.302-11.002-.441-1.348-1.735-3.19-2.838-3.34-1.234-.168-3.232.994-3.959 2.161-2.276 3.657-3.487 7.661-1.022 12.447ZM595.075 317.632c2.234 4.953 2.204 9.649.397 14.316-1.591 4.109-4.588 6.147-9.116 5.705-4.728-.462-8.646-3.643-9.417-7.723-1.114-5.898 2.572-12.763 8.18-15.113 3.865-1.62 7.34-1.47 9.956 2.815Zm-11.922 3.157c-.903 2.174-2.221 4.276-2.616 6.54-.647 3.706 1.606 5.928 4.985 6.887 3.379.958 5.496-1.016 6.642-3.815.767-1.871 1.442-4.213.981-6.049-.639-2.546-2.046-5.153-3.878-6.976-.481-.479-3.741 1.833-6.114 3.413Z"/><path fill="#E7B807" d="M316.88 323.901c-.001 4.211.106 7.976-.08 11.726-.046.925-1.046 1.802-1.607 2.701-.625-.864-1.782-1.722-1.792-2.593a1591.019 1591.019 0 0 1-.021-32.478c.008-.906.893-1.803 1.37-2.704l1.68.28c.15 7.539.3 15.077.45 23.068Z"/><path fill="#DCAF07" d="M298.645 312.151c-.252 9.082.516 17.772-.407 26.37l-1.7.171c-.371-1.265-1.04-2.525-1.066-3.797-.216-10.361-.366-20.724-.363-31.086.001-1.129 1.1-2.256 1.689-3.384.615 1.205 1.623 2.366 1.762 3.624.28 2.523.084 5.1.085 8.102Z"/><path fill="#E7B807" d="M413.316 327.401c-.159-3.589-.432-6.754-.308-9.902.052-1.299.958-2.565 1.792-4.628 3.214 6.82 2.593 23.173-.845 24.832-.206-3.422-.4-6.646-.639-10.302Z"/><path fill="#EABA07" d="M545.319 310.673c-1.081.903-1.945 1.522-2.808 2.141l-1.268-1.129c1.397-1.771 2.528-3.942 4.314-5.125.772-.512 3.265.643 4.333 1.694 2.702 2.66 4.631 2.001 6.539-.753.46-.662 1.067-1.222 1.607-1.83l1.416.675c-.883 1.848-1.32 4.623-2.759 5.315-1.898.913-4.6.358-6.921.112-1.445-.153-2.826-.902-4.453-1.1Z"/></svg>